<?xml version="1.0" standalone="no"?>
<!DOCTYPE svg PUBLIC "-//W3C//DTD SVG 20010904//EN"
 "http://www.w3.org/TR/2001/REC-SVG-20010904/DTD/svg10.dtd">
<svg version="1.0" xmlns="http://www.w3.org/2000/svg"
 width="350.000000pt" height="350.000000pt" viewBox="0 0 350.000000 350.000000"
 preserveAspectRatio="xMidYMid meet">
<metadata>
Created by potrace 1.11, written by Peter Selinger 2001-2013
</metadata>
<g transform="translate(0.000000,350.000000) scale(0.100000,-0.100000)"
fill="#000000" stroke="none">
<path d="M1555 3459 c-119 -16 -296 -59 -395 -96 -539 -200 -949 -650 -1090
-1198 -108 -418 -67 -824 120 -1210 226 -463 643 -804 1137 -929 99 -25 110
-26 433 -26 323 0 334 1 433 26 640 162 1130 670 1279 1326 26 116 37 506 18
628 -99 631 -514 1146 -1110 1375 -93 36 -211 69 -335 92 -97 18 -394 25 -490
12z m-953 -706 c135 -137 184 -193 170 -193 -6 0 -14 5 -17 10 -8 14 -35 -6
-35 -25 0 -8 -10 -26 -22 -42 -41 -51 -98 -154 -98 -176 0 -8 -8 -22 -19 -31
-10 -9 -24 -38 -30 -64 -7 -26 -19 -72 -28 -102 -23 -81 -45 -281 -32 -296 7
-9 7 -19 -1 -33 -14 -28 14 -241 45 -336 13 -38 26 -89 30 -112 4 -24 11 -43
16 -43 5 0 9 -6 9 -13 0 -7 9 -32 20 -55 11 -22 20 -47 20 -55 0 -8 9 -22 20
-32 10 -9 24 -33 31 -52 6 -19 22 -46 35 -60 13 -14 26 -35 30 -47 3 -11 27
-46 53 -76 25 -30 53 -68 61 -83 8 -16 19 -26 27 -23 25 10 13 -15 -29 -61
-76 -82 -279 -278 -293 -281 -16 -4 -132 124 -208 231 -415 582 -434 1349 -48
1947 47 72 161 220 170 220 4 0 59 -53 123 -117z m1189 -1023 c23 -13 25 -52
4 -70 -8 -7 -25 -10 -39 -6 -33 8 -43 42 -20 67 20 22 28 23 55 9z"/>
</g>
</svg>
